# Blender v2.92.0 OBJ File: 'wall_pieces_wood_planks_2.blend'
# www.blender.org
mtllib esquina.mtl
o wood_plank_2_end_Cube.007
v 0.439788 -0.007818 -2.061240
v 0.439788 -0.007818 -0.259640
v 0.439789 2.430583 -2.061239
v 0.439788 2.430583 -0.259640
v 0.439788 0.340525 -2.061240
v 0.439788 0.688868 -2.061240
v 0.439788 1.037211 -2.061239
v 0.439788 1.385554 -2.061239
v 0.439788 1.733897 -2.061239
v 0.439789 2.082240 -2.061239
v 0.439788 0.340525 -0.259640
v 0.439788 0.688868 -0.259640
v 0.439788 1.037211 -0.259640
v 0.439788 1.385554 -0.259640
v 0.439788 1.733897 -0.259640
v 0.439788 2.082240 -0.259640
v 0.467399 1.074012 -2.061239
v 0.467399 1.348753 -2.061239
v 0.467399 1.074012 -0.232440
v 0.467399 1.348753 -0.232440
v 0.467399 0.720167 -2.061240
v 0.467399 1.012547 -2.061239
v 0.467399 0.720167 -0.232440
v 0.467399 1.012547 -0.232440
v 0.467399 0.370804 -2.061240
v 0.467399 0.658590 -2.061240
v 0.467399 0.370804 -0.232440
v 0.467399 0.658590 -0.232440
v 0.467399 0.018241 -2.061240
v 0.467399 0.314467 -2.061240
v 0.467399 0.018241 -0.232440
v 0.467399 0.314467 -0.232440
v 0.467400 1.408857 -2.061239
v 0.467400 1.710594 -2.061239
v 0.467399 1.408857 -0.232440
v 0.467399 1.710594 -0.232440
v 0.467400 1.758969 -2.061239
v 0.467400 2.057168 -2.061239
v 0.467399 1.758969 -0.232440
v 0.467399 2.057168 -0.232440
v 0.467400 2.109054 -2.061239
v 0.467400 2.403768 -2.061239
v 0.467399 2.109054 -0.232440
v 0.467399 2.403768 -0.232440
v -1.361400 -0.007818 -0.259640
v -1.361400 2.430583 -0.259640
v -1.361400 0.340525 -0.259640
v -1.361400 0.688868 -0.259640
v -1.361400 1.037211 -0.259640
v -1.361400 1.385554 -0.259640
v -1.361400 1.733897 -0.259640
v -1.361400 2.082240 -0.259640
v -1.361400 1.074012 -0.232440
v -1.361400 1.348753 -0.232440
v -1.361400 0.720167 -0.232440
v -1.361400 1.012547 -0.232440
v -1.361400 0.370804 -0.232440
v -1.361400 0.658590 -0.232440
v -1.361400 0.018241 -0.232440
v -1.361400 0.314467 -0.232440
v -1.361400 1.408857 -0.232440
v -1.361400 1.710594 -0.232440
v -1.361400 1.758969 -0.232440
v -1.361400 2.057168 -0.232440
v -1.361400 2.109054 -0.232440
v -1.361400 2.403768 -0.232440
vt 1.000000 0.989003
vt 1.000000 1.000000
vt 0.000000 1.000000
vt 0.000000 0.989003
vt 1.000000 0.132170
vt 1.000000 0.142857
vt 0.000000 0.142857
vt 0.000000 0.132170
vt 1.000000 0.273297
vt 1.000000 0.285714
vt 0.000000 0.285714
vt 0.000000 0.273297
vt 1.000000 0.418457
vt 1.000000 0.428571
vt 0.000000 0.428571
vt 0.000000 0.418457
vt 1.000000 0.556336
vt 1.000000 0.571429
vt 0.000000 0.571429
vt 0.000000 0.556336
vt 1.000000 0.704729
vt 1.000000 0.714286
vt 0.000000 0.714286
vt 0.000000 0.704729
vt 1.000000 0.846861
vt 1.000000 0.857143
vt 0.000000 0.857143
vt 0.000000 0.846861
vt 1.000000 0.443664
vt 0.000000 0.443664
vt 1.000000 0.298550
vt 0.000000 0.298550
vt 1.000000 0.155274
vt 0.000000 0.155274
vt 1.000000 0.000000
vt 1.000000 0.010687
vt 0.000000 0.010687
vt 0.000000 0.000000
vt 1.000000 0.580985
vt 0.000000 0.580985
vt 1.000000 0.724568
vt 0.000000 0.724568
vt 1.000000 0.868140
vt 0.000000 0.868140
vt 1.000000 0.989003
vt 1.000000 1.000000
vt 0.000000 1.000000
vt 0.000000 0.989003
vt 1.000000 0.132170
vt 1.000000 0.142857
vt 0.000000 0.142857
vt 0.000000 0.132170
vt 1.000000 0.273297
vt 1.000000 0.285714
vt 0.000000 0.285714
vt 0.000000 0.273297
vt 1.000000 0.418457
vt 1.000000 0.428571
vt 0.000000 0.428571
vt 0.000000 0.418457
vt 1.000000 0.556336
vt 1.000000 0.571429
vt 0.000000 0.571429
vt 0.000000 0.556336
vt 1.000000 0.704729
vt 1.000000 0.714286
vt 0.000000 0.714286
vt 0.000000 0.704729
vt 1.000000 0.846861
vt 1.000000 0.857143
vt 0.000000 0.857143
vt 0.000000 0.846861
vt 1.000000 0.443664
vt 0.000000 0.443664
vt 1.000000 0.298550
vt 0.000000 0.298550
vt 1.000000 0.155274
vt 0.000000 0.155274
vt 1.000000 0.000000
vt 1.000000 0.010687
vt 0.000000 0.010687
vt 0.000000 0.000000
vt 1.000000 0.580985
vt 0.000000 0.580985
vt 1.000000 0.724568
vt 0.000000 0.724568
vt 1.000000 0.868140
vt 0.000000 0.868140
vn 0.6967 0.7174 0.0000
vn 0.6864 0.7273 0.0000
vn 0.7389 0.6738 0.0000
vn 0.6662 0.7458 0.0000
vn 0.7999 0.6001 0.0000
vn 0.6450 0.7642 0.0000
vn 0.6723 0.7403 0.0000
vn 0.7999 -0.6001 0.0000
vn 1.0000 0.0000 0.0000
vn 0.7499 -0.6615 0.0000
vn 0.7389 -0.6738 0.0000
vn 0.6864 -0.7273 0.0000
vn 0.6450 -0.7642 0.0000
vn 0.6723 -0.7403 0.0000
vn 0.6967 -0.7174 0.0000
vn -0.0000 0.7121 0.7020
vn -0.0000 0.7221 0.6918
vn -0.0000 0.6683 0.7439
vn -0.0000 0.7408 0.6717
vn -0.0000 0.5944 0.8042
vn -0.0000 0.7594 0.6506
vn -0.0000 0.7353 0.6778
vn -0.0000 -0.5944 0.8042
vn -0.0000 0.0000 1.0000
vn -0.0000 -0.6560 0.7548
vn -0.0000 -0.6683 0.7439
vn -0.0000 -0.7221 0.6918
vn -0.0000 -0.7594 0.6506
vn -0.0000 -0.7353 0.6778
vn -0.0000 -0.7121 0.7020
usemtl wood_plank_2
s off
f 42/1/1 3/2/1 4/3/1 44/4/1
f 30/5/2 5/6/2 11/7/2 32/8/2
f 26/9/3 6/10/3 12/11/3 28/12/3
f 22/13/4 7/14/4 13/15/4 24/16/4
f 18/17/5 8/18/5 14/19/5 20/20/5
f 34/21/6 9/22/6 15/23/6 36/24/6
f 38/25/7 10/26/7 16/27/7 40/28/7
f 7/14/8 17/29/8 19/30/8 13/15/8
f 17/29/9 18/17/9 20/20/9 19/30/9
f 6/10/10 21/31/10 23/32/10 12/11/10
f 21/31/9 22/13/9 24/16/9 23/32/9
f 5/6/11 25/33/11 27/34/11 11/7/11
f 25/33/9 26/9/9 28/12/9 27/34/9
f 1/35/12 29/36/12 31/37/12 2/38/12
f 29/36/9 30/5/9 32/8/9 31/37/9
f 8/18/13 33/39/13 35/40/13 14/19/13
f 33/39/9 34/21/9 36/24/9 35/40/9
f 9/22/14 37/41/14 39/42/14 15/23/14
f 37/41/9 38/25/9 40/28/9 39/42/9
f 10/26/15 41/43/15 43/44/15 16/27/15
f 41/43/9 42/1/9 44/4/9 43/44/9
f 44/45/16 4/46/16 46/47/16 66/48/16
f 32/49/17 11/50/17 47/51/17 60/52/17
f 28/53/18 12/54/18 48/55/18 58/56/18
f 24/57/19 13/58/19 49/59/19 56/60/19
f 20/61/20 14/62/20 50/63/20 54/64/20
f 36/65/21 15/66/21 51/67/21 62/68/21
f 40/69/22 16/70/22 52/71/22 64/72/22
f 13/58/23 19/73/23 53/74/23 49/59/23
f 19/73/24 20/61/24 54/64/24 53/74/24
f 12/54/25 23/75/25 55/76/25 48/55/25
f 23/75/24 24/57/24 56/60/24 55/76/24
f 11/50/26 27/77/26 57/78/26 47/51/26
f 27/77/24 28/53/24 58/56/24 57/78/24
f 2/79/27 31/80/27 59/81/27 45/82/27
f 31/80/24 32/49/24 60/52/24 59/81/24
f 14/62/28 35/83/28 61/84/28 50/63/28
f 35/83/24 36/65/24 62/68/24 61/84/24
f 15/66/29 39/85/29 63/86/29 51/67/29
f 39/85/24 40/69/24 64/72/24 63/86/24
f 16/70/30 43/87/30 65/88/30 52/71/30
f 43/87/24 44/45/24 66/48/24 65/88/24
